<svg width="100" height="100" viewBox="0 0 100 100" fill="none" xmlns="http://www.w3.org/2000/svg">
  <g style="mix-blend-mode:luminosity">
    <path fill-rule="evenodd" clip-rule="evenodd"
      d="M49.9998 8.33365C26.9873 8.33365 8.33315 26.9878 8.33316 50.0003C8.33316 73.0128 26.9873 91.667 49.9998 91.667C73.0123 91.667 91.6665 73.0128 91.6665 50.0003C91.6665 26.9878 73.0123 8.33365 49.9998 8.33365ZM41.5415 64.7087C40.9563 64.1227 40.6276 63.3285 40.6276 62.5003C40.6276 61.6722 40.9563 60.8779 41.5415 60.292L51.8332 50.0003L41.5415 39.7087C41.2345 39.4226 40.9882 39.0776 40.8174 38.6942C40.6466 38.3109 40.5548 37.8971 40.5474 37.4775C40.54 37.0579 40.6171 36.6411 40.7743 36.252C40.9315 35.8629 41.1654 35.5094 41.4622 35.2127C41.7589 34.9159 42.1124 34.682 42.5015 34.5248C42.8906 34.3676 43.3074 34.2905 43.727 34.2979C44.1466 34.3053 44.5604 34.3971 44.9437 34.5679C45.3271 34.7387 45.6721 34.985 45.9582 35.292L58.4582 47.792C59.0434 48.3779 59.3721 49.1722 59.3721 50.0003C59.3721 50.8285 59.0434 51.6227 58.4582 52.2087L45.9582 64.7087C45.3722 65.2939 44.578 65.6226 43.7498 65.6226C42.9217 65.6226 42.1274 65.2939 41.5415 64.7087Z"
      fill="#bbb" />
  </g>
</svg>
