<svg width="100" height="100" viewBox="0 0 100 100" fill="none" xmlns="http://www.w3.org/2000/svg">
  <g style="mix-blend-mode:luminosity">
    <path fill-rule="evenodd" clip-rule="evenodd"
      d="M49.9999 91.6666C73.0124 91.6666 91.6666 73.0124 91.6666 49.9999C91.6666 26.9874 73.0124 8.33325 49.9999 8.33325C26.9874 8.33325 8.33325 26.9874 8.33325 49.9999C8.33325 73.0124 26.9874 91.6666 49.9999 91.6666ZM58.4583 35.2916C59.0435 35.8775 59.3722 36.6718 59.3722 37.4999C59.3722 38.328 59.0435 39.1223 58.4583 39.7083L48.1666 49.9999L58.4583 60.2916C58.7653 60.5777 59.0115 60.9227 59.1823 61.306C59.3531 61.6893 59.445 62.1032 59.4524 62.5227C59.4598 62.9423 59.3826 63.3591 59.2254 63.7482C59.0683 64.1374 58.8343 64.4908 58.5376 64.7876C58.2408 65.0843 57.8874 65.3183 57.4982 65.4754C57.1091 65.6326 56.6923 65.7098 56.2727 65.7024C55.8532 65.695 55.4393 65.6031 55.056 65.4323C54.6727 65.2615 54.3277 65.0153 54.0416 64.7083L41.5416 52.2083C40.9564 51.6223 40.6277 50.828 40.6277 49.9999C40.6277 49.1718 40.9564 48.3775 41.5416 47.7916L54.0416 35.2916C54.6275 34.7064 55.4218 34.3777 56.2499 34.3777C57.078 34.3777 57.8723 34.7064 58.4583 35.2916Z"
      fill="#bbb" />
  </g>
</svg>
