<svg width="100" height="100" viewBox="0 0 100 100" fill="none" xmlns="http://www.w3.org/2000/svg">
<path fill-rule="evenodd" clip-rule="evenodd" d="M50.0001 8.33365C26.9876 8.33365 8.3334 26.9878 8.3334 50.0003C8.3334 73.0128 26.9876 91.667 50.0001 91.667C73.0126 91.667 91.6667 73.0128 91.6667 50.0003C91.6667 26.9878 73.0126 8.33365 50.0001 8.33365ZM41.5417 64.7087C40.9565 64.1227 40.6278 63.3285 40.6278 62.5003C40.6278 61.6722 40.9565 60.8779 41.5417 60.292L51.8334 50.0003L41.5417 39.7087C41.2347 39.4226 40.9885 39.0776 40.8177 38.6942C40.6468 38.3109 40.555 37.8971 40.5476 37.4775C40.5402 37.0579 40.6174 36.6411 40.7746 36.252C40.9317 35.8629 41.1657 35.5094 41.4624 35.2127C41.7592 34.9159 42.1126 34.682 42.5017 34.5248C42.8909 34.3676 43.3077 34.2905 43.7272 34.2979C44.1468 34.3053 44.5607 34.3971 44.944 34.5679C45.3273 34.7387 45.6723 34.985 45.9584 35.292L58.4584 47.792C59.0436 48.3779 59.3723 49.1722 59.3723 50.0003C59.3723 50.8285 59.0436 51.6227 58.4584 52.2087L45.9584 64.7087C45.3725 65.2939 44.5782 65.6226 43.7501 65.6226C42.9219 65.6226 42.1277 65.2939 41.5417 64.7087Z" fill="url(#paint0_linear_1_105)"/>
<defs>
<linearGradient id="paint0_linear_1_105" x1="91.6667" y1="73.4237" x2="41.617" y2="73.0028" gradientUnits="userSpaceOnUse">
<stop stop-color="#AB5BFB"/>
<stop offset="1" stop-color="#7690EA"/>
</linearGradient>
</defs>
</svg>
