<svg width="100" height="100" viewBox="0 0 100 100" fill="none" xmlns="http://www.w3.org/2000/svg">
<path fill-rule="evenodd" clip-rule="evenodd" d="M50.0002 91.6664C73.0127 91.6664 91.6668 73.0122 91.6668 49.9997C91.6668 26.9872 73.0127 8.33301 50.0002 8.33301C26.9877 8.33301 8.3335 26.9872 8.3335 49.9997C8.3335 73.0122 26.9877 91.6664 50.0002 91.6664ZM58.4585 35.2913C59.0437 35.8773 59.3724 36.6715 59.3724 37.4997C59.3724 38.3278 59.0437 39.1221 58.4585 39.708L48.1668 49.9997L58.4585 60.2913C58.7655 60.5774 59.0118 60.9224 59.1826 61.3058C59.3534 61.6891 59.4452 62.1029 59.4526 62.5225C59.46 62.9421 59.3829 63.3589 59.2257 63.748C59.0685 64.1371 58.8346 64.4906 58.5378 64.7873C58.2411 65.0841 57.8876 65.318 57.4985 65.4752C57.1094 65.6324 56.6926 65.7095 56.273 65.7021C55.8534 65.6947 55.4396 65.6029 55.0563 65.4321C54.6729 65.2613 54.3279 65.015 54.0418 64.708L41.5418 52.208C40.9566 51.6221 40.6279 50.8278 40.6279 49.9997C40.6279 49.1716 40.9566 48.3773 41.5418 47.7913L54.0418 35.2913C54.6278 34.7061 55.422 34.3774 56.2502 34.3774C57.0783 34.3774 57.8726 34.7061 58.4585 35.2913Z" fill="url(#paint0_linear_1_151)"/>
<defs>
<linearGradient id="paint0_linear_1_151" x1="8.3335" y1="26.5763" x2="58.3833" y2="26.9972" gradientUnits="userSpaceOnUse">
<stop stop-color="#AB5BFB"/>
<stop offset="1" stop-color="#7690EA"/>
</linearGradient>
</defs>
</svg>
